<svg id="_440_soap_flatline" data-name="#440_soap_flatline" xmlns="http://www.w3.org/2000/svg" viewBox="0 0 400 300"><path d="M320.08,150a119.55,119.55,0,0,1-17.45,62.38c-1.38,2.27-2.85,4.5-4.38,6.67A120.1,120.1,0,0,1,80.74,164.13,122,122,0,0,1,79.92,150a120.08,120.08,0,1,1,240.16,0Z" fill="#fff"/><path d="M200,270.58A120.52,120.52,0,0,1,80.24,164.19,124.88,124.88,0,0,1,79.42,150a120.58,120.58,0,1,1,241.16,0,122,122,0,0,1-2.67,25.39,120.36,120.36,0,0,1-14.85,37.25c-1.39,2.27-2.87,4.53-4.4,6.7A120.8,120.8,0,0,1,200,270.58Zm0-240.16a119.58,119.58,0,1,0,97.84,188.34c1.52-2.15,3-4.39,4.37-6.64A119.62,119.62,0,0,0,200,30.42Z" fill="#231f20"/><path d="M222.3,117.2s7.87,7.79,7.87,21.89-37.87,66.7-73.4,82.36c0,0-28.51-12.74-40.44-31.67,0,0,30.39-71.91,38.1-85.57s34.6-8.75,45.35-4.89S222.3,117.2,222.3,117.2Z" fill="#19bfaf"/><path d="M156.77,222a.46.46,0,0,1-.2,0,132.33,132.33,0,0,1-15.82-8.77c-7.9-5.09-18.63-13.23-24.84-23.09a.53.53,0,0,1,0-.46c.31-.72,30.49-72.08,38.13-85.61,3.42-6.07,11-9.27,22-9.27h0a77.24,77.24,0,0,1,24,4.15c10.67,3.83,22.07,17.25,22.72,18,.43.45,8,8.42,8,22.23,0,15-38.55,67.32-73.7,82.81A.46.46,0,0,1,156.77,222ZM116.9,189.73c11.26,17.64,37.32,30,39.87,31.17,15.45-6.87,33.53-22,49.64-41.53,13.47-16.35,23.26-33.29,23.26-40.28,0-13.71-7.65-21.46-7.73-21.53l0,0c-.11-.14-11.8-14-22.3-17.73-11.42-4.1-37.39-8.35-44.74,4.67S118.84,185.13,116.9,189.73Z" fill="#231f20"/><path d="M228.4,107.26l-6.1,9.94s-6.28,1.29-14.85-5.9c-4.73-4-7.67-12-7.67-12l7.67-8.18Z" fill="#fff"/><path d="M221,117.79c-2.35,0-7.49-.74-13.91-6.11-4.77-4-7.69-11.86-7.81-12.19a.52.52,0,0,1,.1-.51l7.67-8.18a.51.51,0,0,1,.67-.06l21,16.12a.51.51,0,0,1,.12.66l-6.11,9.94a.5.5,0,0,1-.32.23A8.14,8.14,0,0,1,221,117.79ZM200.36,99.43c.57,1.45,3.33,8.07,7.41,11.49,7.41,6.21,13.1,6,14.22,5.82l5.75-9.36L207.5,91.81Z" fill="#231f20"/><path d="M219.88,95.7s8.3,7.51,8.65,10.83-8.88,0-14.14-4.87-9.1-9.24-6.94-10.52S213.92,92.07,219.88,95.7Z" fill="#d1d3d4"/><path d="M226.88,108.36c-3.12,0-9.09-2.84-12.83-6.34-5.59-5.22-7.9-8.21-7.7-10a1.67,1.67,0,0,1,.84-1.29c2.31-1.38,6.33.54,12.95,4.56l.08.06c.34.31,8.44,7.68,8.81,11.14a1.52,1.52,0,0,1-.85,1.64A2.93,2.93,0,0,1,226.88,108.36ZM209,91.27a2.34,2.34,0,0,0-1.25.3.68.68,0,0,0-.36.53c-.15,1.39,2.34,4.48,7.39,9.19,4.3,4,11.2,6.83,13,5.92.18-.09.34-.22.29-.63-.27-2.55-6.15-8.4-8.45-10.48C215.5,93.62,211.39,91.27,209,91.27Z" fill="#231f20"/><path d="M232.66,95l-8.92,8.92s-2.57,0-7.6-4c-4.11-3.28-4.21-6.77-4.21-6.77l6.7-8.42Z" fill="#231f20"/><path d="M223.74,104.45c-.11,0-2.82,0-7.93-4.13-4.26-3.39-4.41-7-4.41-7.18a.49.49,0,0,1,.11-.35l6.7-8.41a.54.54,0,0,1,.74-.1l14,10.28a.55.55,0,0,1,.21.39.53.53,0,0,1-.15.43l-8.92,8.91A.55.55,0,0,1,223.74,104.45ZM212.49,93.29c.09.73.66,3.54,4,6.19,4,3.18,6.38,3.77,7.06,3.87l8.29-8.29-13.1-9.61Z" fill="#231f20"/><path d="M221.52,72.32S244,85.41,254,106.45l-4.21,2.88s-13.56-10.44-19.32-14.18-14-8-16.21-12.15S211,68.32,221.52,72.32Z" fill="#fff"/><path d="M249.8,109.83a.5.5,0,0,1-.31-.1c-.13-.11-13.6-10.47-19.29-14.16-1.26-.82-2.63-1.65-4.08-2.53-5.18-3.15-10.53-6.41-12.29-9.81-1.5-2.9-2.37-8.27-.08-10.82,1.58-1.78,4.25-2,7.94-.55l.08,0c.22.13,22.69,13.41,32.69,34.34a.51.51,0,0,1-.17.63l-4.21,2.88A.47.47,0,0,1,249.8,109.83ZM217.42,71.92a3.75,3.75,0,0,0-2.93,1.15c-2,2.2-1.11,7.13.23,9.7,1.63,3.15,7.1,6.48,11.92,9.41,1.46.89,2.83,1.72,4.11,2.55,5.25,3.41,17.07,12.45,19.07,14l3.55-2.43c-9.77-20-31.08-32.91-32.07-33.51A11.48,11.48,0,0,0,217.42,71.92Z" fill="#231f20"/><path d="M249.8,106.53s-18-13.46-22.28-17.61a63.43,63.43,0,0,1-7.64-9.2" fill="#fff"/><path d="M249.8,107a.54.54,0,0,1-.3-.1c-.74-.55-18.07-13.53-22.33-17.65A65.16,65.16,0,0,1,219.46,80a.5.5,0,0,1,.84-.55,63.44,63.44,0,0,0,7.56,9.11c4.22,4.08,22.06,17.43,22.24,17.57a.5.5,0,0,1-.3.9Z" fill="#231f20"/><path d="M186.38,93.59s9,6.55,11.84,11.53,5.61,40.55,1.25,44.9-10.13,3.41-13.09-10.93c0,0,5.61,18.85-1.25,22.29s-10-7-10-7-.61,10.9-6.54,9.34-9.62-14.17-9-22.89l-6.23-6.25s-9.07,11.08-21.23,13.26S115.63,146,115.63,146L83.71,156.23l6.5-41s18.55-3.43,31-15.9,27.76-26.45,44-26.45S194.7,58.54,202.61,60.1s43.5,22.81,38.07,27.69c-8,7.2-34.61-9.76-34.61-9.76Z" fill="#fff"/><path d="M169.73,164.35a4.57,4.57,0,0,1-1.24-.17c-6-1.56-10-13.89-9.39-23.18l-5.69-5.7c-1.82,2-10.33,11.07-21.17,13s-15.64-1-16.71-1.8l-31.66,10.2a.49.49,0,0,1-.48-.1.46.46,0,0,1-.17-.45l6.49-41a.51.51,0,0,1,.41-.41c.18,0,18.54-3.56,30.75-15.76,12.87-12.87,28-26.6,44.32-26.6,8.79,0,16.59-4.21,23.48-7.93,5.53-3,10.31-5.57,14-4.83,7.14,1.4,36.9,18.8,38.91,26.11a2.24,2.24,0,0,1-.61,2.44c-7.83,7-31.78-7.56-34.91-9.52L187.2,93.58c2,1.5,9,6.92,11.46,11.3,2.61,4.65,5.87,40.8,1.16,45.49-2.09,2.08-4.29,2.85-6.36,2.23-1.81-.55-3.41-2.15-4.75-4.74.71,5.55.56,12-3.35,14a5.73,5.73,0,0,1-5,.31c-2.47-1.07-4.07-3.81-4.92-5.7-.36,2.22-1.24,5.64-3.32,7.15A3.9,3.9,0,0,1,169.73,164.35Zm-16.35-30.29a.53.53,0,0,1,.36.15l6.23,6.24a.52.52,0,0,1,.14.39c-.63,8.89,3.22,20.95,8.63,22.38a3.09,3.09,0,0,0,2.76-.45c2.75-2,3.15-8.37,3.15-8.43a.5.5,0,0,1,.44-.47.49.49,0,0,1,.54.35c0,.06,1.69,5.52,5.1,7a4.79,4.79,0,0,0,4.18-.28c4.56-2.29,3.15-12.25,1.94-17.84-.35-1.2-.67-2.49-1-3.89a.49.49,0,0,1,.37-.59.51.51,0,0,1,.6.34c.06.22.53,1.83,1,4.1,1.83,6.09,4.13,8.07,5.87,8.59,2.15.64,4.1-.72,5.37-2,4.15-4.14,1.43-39.39-1.33-44.3S186.17,94.06,186.08,94a.51.51,0,0,1-.2-.4.53.53,0,0,1,.19-.4l19.69-15.57a.51.51,0,0,1,.58,0c.26.17,26.36,16.69,34,9.82a1.27,1.27,0,0,0,.32-1.44c-1.89-6.83-31.3-24.05-38.15-25.39-3.37-.67-8,1.83-13.37,4.73-6.64,3.59-14.9,8.05-23.95,8.05-16,0-30.89,13.58-43.61,26.3-11.49,11.5-28.31,15.42-30.93,16l-6.32,39.87,31.15-10a.51.51,0,0,1,.49.11s4.39,3.85,16.09,1.75,20.85-13,20.94-13.08a.52.52,0,0,1,.36-.19Z" fill="#231f20"/><path d="M186.38,139.59a.5.5,0,0,1-.5-.45c-.66-6.69-2.32-20-3.93-22.53-2-3.17-16.93-15.5-17.08-15.62a.5.5,0,0,1-.07-.7.49.49,0,0,1,.7-.07c.62.51,15.17,12.55,17.29,15.85s4,22.18,4.09,23a.51.51,0,0,1-.45.55Z" fill="#231f20"/><path d="M175.15,154.86a.5.5,0,0,1-.5-.47c0-.18-1-17.88-3.4-25.59s-14.65-16.46-14.77-16.55a.5.5,0,0,1,.58-.81c.52.37,12.63,9.14,15.15,17.06s3.4,25.11,3.44,25.84a.5.5,0,0,1-.47.52Z" fill="#231f20"/><path d="M153.38,135.06h-.12c-.33-.09-8.18-2.11-10.36-6a.5.5,0,1,1,.87-.49c2,3.51,9.66,5.49,9.74,5.51a.5.5,0,0,1-.13,1Z" fill="#231f20"/><path d="M119.38,151.1l-38.64,13A122,122,0,0,1,79.92,150a119.76,119.76,0,0,1,7.37-41.51l25.07-4.27S118.75,149.84,119.38,151.1Z" fill="#231f20"/><path d="M80.74,164.67a.52.52,0,0,1-.29-.09.51.51,0,0,1-.24-.39A122.5,122.5,0,0,1,79.38,150a119.85,119.85,0,0,1,7.41-41.69.53.53,0,0,1,.41-.35l25.07-4.27a.55.55,0,0,1,.41.09.58.58,0,0,1,.21.36c2.54,18.09,6.49,45.46,7,46.73a.57.57,0,0,1-.32.74l-38.64,13A.47.47,0,0,1,80.74,164.67Zm7-55.7a118.94,118.94,0,0,0-7.23,41,123,123,0,0,0,.74,13.41l37.54-12.67c-1.07-4.93-5.68-37.68-6.83-45.9Z" fill="#231f20"/><path d="M278.47,163.72a16.75,16.75,0,0,0,1.59-4.77,10.35,10.35,0,0,0-1.56-7.64c-2.65-3.65-7.62-4.46-11.9-5.89a3.46,3.46,0,0,1-2.28-1.62,3.07,3.07,0,0,1,.44-2.64c1.32-2.31,3.62-4.12,4.18-6.72a2.94,2.94,0,0,0-.13-1.92c-.76-1.58-3-1.51-4.72-1.2-2.59.47-5.82,1.64-8.45,1.52s-2.32-2.06-1.87-4.57c.34-1.88.53-4.11-.84-5.44a1.1,1.1,0,0,0-.58-.33,1.19,1.19,0,0,0-.66.17,13.43,13.43,0,0,0-3.5,2.09,5.14,5.14,0,0,0-1.83,3.55,8.19,8.19,0,0,1,0,2.1c-.39,1.31-1.92,1.82-3.15,2.41-1.62.78-3.13,2.27-3,4.06s2.27,4.22,1.78,5.73c-.81,2.48-3.52.86-5.32.88-2.17,0-3.76,2.28-3.88,4.45a11.52,11.52,0,0,1-.15,2.2,4.15,4.15,0,0,1-2.55,2.65c-3.64,1.49-7.73.55-11.48,1.56-3.15.86-6.19,3.62-5.8,6.86a16.76,16.76,0,0,1,.56,3.25c-.23,2.79-3.71,3.75-6,5.29-4.35,2.88-4.91,10-1.07,13.54,5.93,5.45,21.66,3.41,29,2.56,8.08-.93,16.85-1.38,24.39-4.69A39,39,0,0,0,277,166.3,27,27,0,0,0,278.47,163.72Z" fill="#fff"/><path d="M220.84,187.45c-6,0-11.8-.84-15-3.79A9.52,9.52,0,0,1,207,169.33c.61-.4,1.29-.76,1.95-1.11,1.91-1,3.72-2,3.87-3.8a5.62,5.62,0,0,0-.27-1.82,9.5,9.5,0,0,1-.28-1.33c-.44-3.6,2.85-6.5,6.16-7.4a23.43,23.43,0,0,1,5.25-.6,17.5,17.5,0,0,0,6.17-.94,3.68,3.68,0,0,0,2.26-2.31,5.6,5.6,0,0,0,.11-1.38c0-.24,0-.49,0-.73.13-2.34,1.84-4.89,4.38-4.92a10.2,10.2,0,0,1,1.78.26c1.82.39,2.66.43,3.06-.79.22-.66-.35-1.82-.84-2.83a7.48,7.48,0,0,1-1-2.73c-.09-2.11,1.66-3.72,3.33-4.52l.55-.26c1-.47,2.07-1,2.34-1.86a3.63,3.63,0,0,0,0-1.2c0-.26,0-.51,0-.77a5.67,5.67,0,0,1,2-3.9,13.8,13.8,0,0,1,3.63-2.18,1.78,1.78,0,0,1,.93-.21,1.49,1.49,0,0,1,.86.47c1.55,1.49,1.35,3.93,1,5.89l0,.28c-.25,1.4-.47,2.61,0,3.19a1.92,1.92,0,0,0,1.47.51,21.72,21.72,0,0,0,5.62-.9c1-.23,1.86-.46,2.71-.61,3.46-.62,4.77.46,5.26,1.47a3.42,3.42,0,0,1,.17,2.25,11.33,11.33,0,0,1-2.55,4.5,18.82,18.82,0,0,0-1.68,2.36,2.68,2.68,0,0,0-.42,2.2,3.08,3.08,0,0,0,2,1.34c.81.27,1.64.52,2.48.77,3.65,1.08,7.42,2.2,9.66,5.3a10.78,10.78,0,0,1,1.65,8,17.15,17.15,0,0,1-1.63,4.91h0a27.65,27.65,0,0,1-1.47,2.63,39.6,39.6,0,0,1-17.66,15.05c-6.44,2.82-13.7,3.58-20.72,4.32l-3.81.41-.75.09A120.12,120.12,0,0,1,220.84,187.45ZM236.62,144h0c-1.9,0-3.29,2.07-3.39,4,0,.23,0,.46,0,.69a6.46,6.46,0,0,1-.14,1.62,4.66,4.66,0,0,1-2.85,3,18.44,18.44,0,0,1-6.51,1,22.81,22.81,0,0,0-5,.56c-3,.8-5.78,3.39-5.43,6.32a11.17,11.17,0,0,0,.25,1.2,6.19,6.19,0,0,1,.3,2.15c-.19,2.36-2.32,3.5-4.39,4.6-.67.36-1.3.69-1.87,1.07a8.53,8.53,0,0,0-1,12.75c5.58,5.12,20.66,3.37,27.9,2.52l.74-.08c1.26-.15,2.54-.28,3.83-.42,6.94-.72,14.12-1.48,20.42-4.23A38.73,38.73,0,0,0,276.6,166,27.21,27.21,0,0,0,278,163.5h0a16.25,16.25,0,0,0,1.53-4.62,9.79,9.79,0,0,0-1.47-7.27c-2-2.82-5.65-3.9-9.14-4.94-.85-.25-1.69-.5-2.51-.77a3.92,3.92,0,0,1-2.58-1.9,3.47,3.47,0,0,1,.47-3.09,20.59,20.59,0,0,1,1.76-2.48,10.55,10.55,0,0,0,2.37-4.09,2.53,2.53,0,0,0-.1-1.6c-.61-1.28-2.61-1.21-4.18-.93-.82.15-1.71.37-2.65.6a21,21,0,0,1-5.91.93,2.82,2.82,0,0,1-2.2-.89c-.74-.93-.49-2.35-.19-4l.05-.28c.33-1.82.5-3.83-.7-5-.15-.15-.24-.19-.29-.19a.89.89,0,0,0-.4.12,13.37,13.37,0,0,0-3.37,2,4.67,4.67,0,0,0-1.66,3.19c0,.22,0,.45,0,.68a4.55,4.55,0,0,1-.09,1.55c-.4,1.34-1.72,1.95-2.89,2.48l-.53.25c-1.32.63-2.83,1.95-2.76,3.58a7.08,7.08,0,0,0,.86,2.33c.6,1.24,1.23,2.53.89,3.58-.72,2.21-2.74,1.77-4.22,1.45A7.9,7.9,0,0,0,236.62,144Z" fill="#231f20"/><path d="M314.14,177.27l-1.22,13.67a120.17,120.17,0,0,1-10.29,21.44L281.37,207l-3.15-.8s-14,10-49.06,3.59c-7.85-1.44-42.55-22.47-52.6-27.71s-7.44-12.88,1.31-12c4.54.46,19.61,2.37,33,4.12l10.83,1.42.22,0,.19,0,6.73.88c-6.9-1.71-9.1-6.11-3.76-11.1,6.56-6.13,32.36-15.74,41.11-16.17,5-.25,9.87,3.64,14,7.85,3.09,3.14,5.8,6.45,7.86,8.32a35.76,35.76,0,0,0,7.73,4.47C303.7,173.62,314.14,177.27,314.14,177.27Z" fill="#fff"/><path d="M302.63,212.88l-.12,0-24.2-6.11c-1.87,1.22-16.15,9.57-49.24,3.54-5.69-1-25.1-12.12-39.27-20.21-5.69-3.25-10.6-6.05-13.47-7.55-6-3.1-7.29-6.8-6.57-9.22.8-2.68,4-4.14,8.16-3.72,5.32.54,24.88,3.06,33,4.12l10.82,1.42.42.05,2.61.34a6,6,0,0,1-3-3.59c-.39-1.48-.19-3.87,3-6.84,6.66-6.2,32.5-15.86,41.44-16.3,5.59-.27,10.87,4.43,14.38,8,1.41,1.43,2.76,2.92,4,4.23,1.49,1.64,2.78,3.06,3.89,4.07a35.26,35.26,0,0,0,7.6,4.39c7.78,3.63,18.18,7.28,18.28,7.32a.5.5,0,0,1,.34.52L313.42,191l0,.12a120.59,120.59,0,0,1-10.33,21.53A.51.51,0,0,1,302.63,212.88Zm-24.41-7.17a.25.25,0,0,1,.12,0l24.06,6.07a118.93,118.93,0,0,0,10-21l1.19-13.22c-1.93-.68-11-4-18-7.23a35.5,35.5,0,0,1-7.86-4.55c-1.14-1-2.44-2.48-3.95-4.14-1.19-1.3-2.53-2.79-3.93-4.2-3.37-3.43-8.45-8-13.62-7.7-8.59.42-34.42,10.08-40.8,16-2.23,2.08-3.16,4.11-2.71,5.86.52,2,2.73,3.52,6.25,4.39a.5.5,0,0,1-.18,1l-6.73-.88-.4,0-10.84-1.42c-8.16-1.06-27.7-3.58-33-4.11-3.65-.36-6.44.81-7.1,3-.58,1.95.66,5.23,6.07,8,2.88,1.51,7.81,4.32,13.51,7.57,14.11,8,33.43,19.08,38.95,20.09,18,3.29,30.27,2.16,37.4.63,7.72-1.65,11.24-4.1,11.28-4.13A.48.48,0,0,1,278.22,205.71Z" fill="#231f20"/><path d="M228.4,177.13a.52.52,0,0,1-.47-.33.5.5,0,0,1,.29-.64c1-.36,23.43-8.78,32.78-7a.5.5,0,0,1,.4.58.5.5,0,0,1-.58.4c-9.09-1.7-32,6.89-32.24,7A.39.39,0,0,1,228.4,177.13Z" fill="#231f20"/><path d="M239.75,199.64c-12.71,0-29.19-6.26-40.14-10.43a104.38,104.38,0,0,0-10.27-3.58c-4.71-1.09-7.56-2.77-8.46-5-.63-1.55-.31-3.32.94-5.25,3-4.61,36.56-.67,40.37-.2a.5.5,0,1,1-.12,1c-14.74-1.8-37.4-3.34-39.41-.24-1.07,1.64-1.35,3.09-.86,4.32.78,1.92,3.39,3.4,7.77,4.41A101.5,101.5,0,0,1,200,188.28c10.89,4.14,27.26,10.36,39.79,10.36h.51a.5.5,0,0,1,0,1Z" fill="#231f20"/><path d="M317.42,175.29a119.76,119.76,0,0,1-14.79,37.09c-1.38,2.27-2.85,4.5-4.38,6.67L280,210.49l1.35-3.48,14.44-37.08,1-2.47S308.05,171.64,317.42,175.29Z" fill="#231f20"/><path d="M298.25,219.59a.59.59,0,0,1-.23-.05L279.79,211a.53.53,0,0,1-.27-.68l16.75-43A.54.54,0,0,1,297,167c.11.05,11.39,4.23,20.65,7.84a.52.52,0,0,1,.33.61,120.26,120.26,0,0,1-14.85,37.26c-1.39,2.27-2.87,4.53-4.4,6.7A.54.54,0,0,1,298.25,219.59Zm-17.55-9.37,17.37,8.15c1.43-2,2.81-4.15,4.1-6.27a119.48,119.48,0,0,0,10.24-21.34,117.58,117.58,0,0,0,4.38-15.14c-8.05-3.13-17.47-6.64-19.71-7.47Z" fill="#231f20"/><path d="M251,148.68a9.9,9.9,0,0,1-5.16-1.41.5.5,0,0,1,.56-.82c.25.17,6.25,4.1,12.69-2.77a.5.5,0,0,1,.71,0,.5.5,0,0,1,0,.71C256.66,147.75,253.51,148.68,251,148.68Z" fill="#d1d3d4"/><path d="M221.49,166.37a4.31,4.31,0,0,1-4.36-4.44.5.5,0,0,1,1,0,3.33,3.33,0,0,0,4.21,3.3.5.5,0,1,1,.27,1A4.31,4.31,0,0,1,221.49,166.37Z" fill="#d1d3d4"/></svg>