<svg xmlns="http://www.w3.org/2000/svg" viewBox="0 0 400 300"><g id="_512_graphics_and_charts_flatline" data-name="#512_graphics_and_charts_flatline"><polygon points="35.34 159.14 245.38 74.22 360.26 154.42 145.15 258.18 35.34 159.14" fill="#fff"/><path d="M145.15,258.68a.5.5,0,0,1-.34-.13L35,159.51a.5.5,0,0,1,.15-.83l210-84.93a.51.51,0,0,1,.48.06L360.54,154a.5.5,0,0,1,.22.45.53.53,0,0,1-.28.41L145.36,258.63A.38.38,0,0,1,145.15,258.68ZM36.27,159.31l109,98.27,214-103.24L245.32,74.78Z" fill="#231f20"/><polygon points="39.74 147.98 249.78 63.05 364.66 143.25 149.55 247.01 39.74 147.98" fill="#fff"/><path d="M149.55,247.52a.51.51,0,0,1-.33-.13l-109.81-99a.51.51,0,0,1,.14-.84L249.6,62.59a.47.47,0,0,1,.47,0L365,142.84a.52.52,0,0,1,.21.45.49.49,0,0,1-.28.41L149.77,247.47A.59.59,0,0,1,149.55,247.52ZM40.67,148.14l109,98.28,214-103.25-114-79.56Z" fill="#231f20"/><path d="M261.11,98.23a.52.52,0,0,1-.29-.09L233.2,78.41a.49.49,0,0,1,.07-.85l5.94-2.94a.48.48,0,0,1,.5,0L268.3,94.44a.5.5,0,0,1,.13.7.51.51,0,0,1-.7.12L239.39,75.65l-4.93,2.43L261.4,97.32a.5.5,0,0,1,.12.7A.49.49,0,0,1,261.11,98.23Z" fill="#d1d3d4"/><path d="M223.32,114.25a.47.47,0,0,1-.3-.1L194.76,92.93a.5.5,0,1,1,.6-.8l28,21.05,50.67-21.11a.5.5,0,0,1,.66.27.51.51,0,0,1-.27.65l-50.94,21.22A.43.43,0,0,1,223.32,114.25Z" fill="#d1d3d4"/><path d="M148,123.07l-59.42-2.81s5.18-14.59,31.66-20.9c25.35-6,37.44-3,37.44-3Z" fill="#8edfd8"/><path d="M148,123.57h0l-59.42-2.81a.51.51,0,0,1-.39-.23.46.46,0,0,1,0-.44c.21-.61,5.57-14.91,32-21.21,25.18-6,37.18-3.1,37.68-3a.47.47,0,0,1,.32.25.47.47,0,0,1,0,.4l-9.68,26.68A.5.5,0,0,1,148,123.57Zm-58.67-3.78,58.32,2.76L157,96.76c-2.62-.48-14.69-2.14-36.66,3.09C97.65,105.27,90.74,117,89.36,119.79Z" fill="#231f20"/><path d="M194.43,171.12a32.26,32.26,0,0,0,11.93-15.43l3.08-39.41-23.29,14.29Z" fill="#fff"/><path d="M194.43,171.62a.46.46,0,0,1-.2-.05.47.47,0,0,1-.29-.35l-8.28-40.55a.51.51,0,0,1,.23-.53l23.29-14.29a.51.51,0,0,1,.53,0,.49.49,0,0,1,.23.47l-3.08,39.41a.35.35,0,0,1,0,.14,32.54,32.54,0,0,1-12.14,15.68A.59.59,0,0,1,194.43,171.62Zm-7.72-40.81,8.06,39.48a32.86,32.86,0,0,0,11.1-14.71l3-38.36Z" fill="#231f20"/><path d="M197,135.32,148,114.11l12.53-25.55s23.89,1.65,40.5,14C220.7,117.12,200.09,133.49,197,135.32Z" fill="#8edfd8"/><path d="M197,135.82a.48.48,0,0,1-.2,0l-48.93-21.21a.51.51,0,0,1-.27-.29.48.48,0,0,1,0-.39l12.53-25.55a.51.51,0,0,1,.49-.28c.24,0,24.22,1.8,40.76,14.08,6,4.44,8.87,9.49,8.56,15-.52,9.57-10.72,17.46-12.71,18.62A.45.45,0,0,1,197,135.82Zm-48.25-22,48.21,20.9c2.33-1.48,11.52-8.86,12-17.68.29-5.15-2.46-9.91-8.16-14.14-15.24-11.31-37-13.59-39.9-13.86Z" fill="#231f20"/><polygon points="196.96 135.32 194.43 171.12 148.03 150.51 148.03 114.11 196.96 135.32" fill="#231f20"/><path d="M194.43,171.62a.46.46,0,0,1-.2-.05L147.82,151a.48.48,0,0,1-.29-.45v-36.4a.5.5,0,0,1,.22-.42.51.51,0,0,1,.48,0l48.93,21.21a.53.53,0,0,1,.3.5l-2.53,35.79a.52.52,0,0,1-.24.4A.59.59,0,0,1,194.43,171.62Zm-45.9-21.44L194,170.37l2.46-34.73-47.91-20.77Z" fill="#231f20"/><polygon points="148.03 150.51 90.38 150.03 88.61 120.26 148.03 123.07 148.03 150.51" fill="#231f20"/><path d="M148,151h0l-57.65-.48a.49.49,0,0,1-.49-.47l-1.77-29.77a.51.51,0,0,1,.14-.39.46.46,0,0,1,.38-.14l59.42,2.81a.5.5,0,0,1,.48.5v27.44a.51.51,0,0,1-.15.35A.47.47,0,0,1,148,151Zm-57.18-1.47,56.68.46V123.54l-58.39-2.76Z" fill="#231f20"/><path d="M108.13,175s-7.71-4.52-12.47-9.1-6.15-11.39-6.15-11.39l-.9-19.1L148,133.15v10.37l-14.1,15.67Z" fill="#fff"/><path d="M108.13,175.47a.57.57,0,0,1-.25-.06c-.08,0-7.82-4.61-12.57-9.18S89.08,154.87,89,154.58l-.91-19.18a.49.49,0,0,1,.13-.36.52.52,0,0,1,.35-.16L148,132.65a.5.5,0,0,1,.36.14.52.52,0,0,1,.16.36v10.37a.51.51,0,0,1-.13.33l-14.1,15.67a.31.31,0,0,1-.11.09l-25.8,15.79A.48.48,0,0,1,108.13,175.47ZM90,154.46s1.41,6.64,6,11a78.62,78.62,0,0,0,12.12,8.88L133.6,158.8l13.93-15.47v-9.66l-58.4,2.19.88,18.6Z" fill="#231f20"/><path d="M148,133.15l-40.38,26s-10.85-3.62-15.79-11.82a23.76,23.76,0,0,1-2.64-16.88Z" fill="#8edfd8"/><path d="M107.65,159.69a.45.45,0,0,1-.16,0c-.45-.15-11.08-3.77-16.06-12a24.1,24.1,0,0,1-2.7-17.27.52.52,0,0,1,.51-.37l58.81,2.66a.5.5,0,0,1,.25.92l-40.38,26A.5.5,0,0,1,107.65,159.69ZM89.61,131a23.46,23.46,0,0,0,2.68,16.11c4.4,7.29,13.74,10.94,15.3,11.51l38.85-25Z" fill="#231f20"/><polygon points="148.03 133.15 148.03 159.19 108.13 174.97 107.65 159.19 148.03 133.15" fill="#231f20"/><path d="M108.13,175.47a.45.45,0,0,1-.27-.08.51.51,0,0,1-.23-.4l-.48-15.79a.52.52,0,0,1,.23-.44l40.38-26a.49.49,0,0,1,.51,0,.51.51,0,0,1,.26.44v26a.51.51,0,0,1-.32.46l-39.89,15.79A.58.58,0,0,1,108.13,175.47Zm0-16,.45,14.8,38.92-15.4V134.07Z" fill="#231f20"/><path d="M146.7,172.44v10.73s-24.26-.08-38.57-8.2l-.33-10.82,36.73,1.26Z" fill="#fff"/><path d="M146.7,183.67h0c-.24,0-24.56-.17-38.81-8.26a.51.51,0,0,1-.26-.42l-.33-10.82a.51.51,0,0,1,.15-.37.48.48,0,0,1,.37-.15l36.73,1.26a.5.5,0,0,1,.46.36l2.17,7a.59.59,0,0,1,0,.14v10.73a.51.51,0,0,1-.5.5Zm-38.08-9c12.92,7.19,34.06,7.91,37.58,8V172.52l-2-6.62-35.84-1.23Z" fill="#231f20"/><path d="M148,139.06,107.8,164.15s4.07,3.95,16.85,6.24a120.64,120.64,0,0,0,22,2.05Z" fill="#8edfd8"/><path d="M146,173a127.39,127.39,0,0,1-21.4-2.06c-12.78-2.29-16.94-6.21-17.11-6.38a.51.51,0,0,1,.09-.78l40.22-25.1a.51.51,0,0,1,.52,0,.5.5,0,0,1,.25.45l-1.33,33.38a.49.49,0,0,1-.49.48Zm-37.3-8.74c1.44,1,6.06,3.9,16.07,5.69a124.9,124.9,0,0,0,21.49,2l1.27-32Z" fill="#231f20"/><path d="M194.72,166.94l-.29,4.18s-9.17,5.74-15,7.47v-4.42Z" fill="#fff"/><path d="M179.48,179.09a.45.45,0,0,1-.29-.1.49.49,0,0,1-.21-.4v-4.42a.51.51,0,0,1,.29-.45l15.24-7.23a.49.49,0,0,1,.71.48l-.29,4.18a.49.49,0,0,1-.24.39c-.37.24-9.29,5.8-15.06,7.53Zm.5-4.6v3.42c5.16-1.73,12.61-6.25,14-7.08l.22-3.07Z" fill="#231f20"/><path d="M179.48,174.17a53.8,53.8,0,0,0,15.24-7.23l-40.39-19Z" fill="#8edfd8"/><path d="M179.48,174.67a.51.51,0,0,1-.36-.15L154,148.32a.5.5,0,0,1,.58-.8l40.39,19a.51.51,0,0,1,.07.87,54.81,54.81,0,0,1-15.4,7.3A.27.27,0,0,1,179.48,174.67Zm-22.92-25.1,23.08,24A54.82,54.82,0,0,0,193.72,167Z" fill="#231f20"/><path d="M179.48,170.8v7.79a90.81,90.81,0,0,1-32.78,4.58V172.44Z" fill="#fff"/><path d="M150.87,183.78c-1.38,0-2.78,0-4.2-.11a.5.5,0,0,1-.47-.5V172.44a.51.51,0,0,1,.48-.5l32.78-1.64a.5.5,0,0,1,.37.13.51.51,0,0,1,.15.37v7.79a.5.5,0,0,1-.32.47A92.71,92.71,0,0,1,150.87,183.78Zm-3.67-1.09A91.54,91.54,0,0,0,179,178.24v-6.92l-31.78,1.6Z" fill="#231f20"/><path d="M148,139.85l31.48,31A97.66,97.66,0,0,1,165.26,174a129.42,129.42,0,0,1-18.56,1.39Z" fill="#8edfd8"/><path d="M146.82,175.9h-.12a.48.48,0,0,1-.36-.16.54.54,0,0,1-.14-.36l1.3-35.55a.49.49,0,0,1,.31-.45.52.52,0,0,1,.54.11l31.48,30.95a.49.49,0,0,1,.14.47.5.5,0,0,1-.33.36,97,97,0,0,1-14.3,3.23A131,131,0,0,1,146.82,175.9Zm1.63-34.9-1.23,33.9a131.21,131.21,0,0,0,18-1.38,107,107,0,0,0,13.36-3Z" fill="#231f20"/><polygon points="300.8 65.94 322.11 57.77 303.15 45.29 282.31 53.93 300.8 65.94" fill="#8edfd8"/><path d="M300.8,66.44a.53.53,0,0,1-.27-.08L282,54.35a.53.53,0,0,1-.23-.47.54.54,0,0,1,.31-.42L303,44.83a.5.5,0,0,1,.46,0l19,12.49a.48.48,0,0,1,.22.47.5.5,0,0,1-.32.41L301,66.41A.57.57,0,0,1,300.8,66.44ZM283.38,54l17.48,11.36L321,57.66,303.09,45.85Z" fill="#231f20"/><polygon points="300.8 65.94 298.8 162.01 320.23 151.72 322.11 57.77 300.8 65.94" fill="#fff"/><path d="M298.8,162.51a.45.45,0,0,1-.27-.08.49.49,0,0,1-.23-.43l2-96.07a.5.5,0,0,1,.32-.46l21.31-8.16a.5.5,0,0,1,.46,0,.49.49,0,0,1,.21.42l-1.87,93.95a.51.51,0,0,1-.29.44L299,162.46A.44.44,0,0,1,298.8,162.51Zm2.49-96.22-2,94.92,20.41-9.81,1.86-92.89Z" fill="#231f20"/><polygon points="282.31 53.93 282.31 152.47 298.8 162.01 300.8 65.94 282.31 53.93" fill="#fff"/><path d="M298.8,162.51a.45.45,0,0,1-.25-.07l-16.49-9.53a.52.52,0,0,1-.25-.43V53.93a.49.49,0,0,1,.26-.44.49.49,0,0,1,.51,0l18.49,12a.5.5,0,0,1,.23.43l-2,96.07a.5.5,0,0,1-.25.43A.57.57,0,0,1,298.8,162.51Zm-16-10.32,15.51,9,2-94.95L282.81,54.85Z" fill="#231f20"/><polygon points="276.99 96.72 298.3 88.56 279.34 76.08 258.5 84.71 276.99 96.72" fill="#8edfd8"/><path d="M277,97.22a.45.45,0,0,1-.27-.08l-18.49-12a.5.5,0,0,1-.22-.47.48.48,0,0,1,.3-.41l20.84-8.64a.52.52,0,0,1,.47,0l18.95,12.48a.5.5,0,0,1,.23.47.49.49,0,0,1-.32.41l-21.31,8.17A.52.52,0,0,1,277,97.22ZM259.57,84.81l17.48,11.35,20.16-7.72-17.92-11.8Z" fill="#231f20"/><polygon points="276.99 96.72 274.99 172.99 296.42 162.7 298.3 88.56 276.99 96.72" fill="#fff"/><path d="M275,173.49a.45.45,0,0,1-.27-.08.52.52,0,0,1-.23-.43l2-76.27a.51.51,0,0,1,.33-.45l21.3-8.17a.5.5,0,0,1,.47.06.53.53,0,0,1,.21.42l-1.88,74.14a.49.49,0,0,1-.28.44l-21.43,10.29A.42.42,0,0,1,275,173.49Zm2.5-76.42-2,75.12,20.41-9.81,1.85-73.09Z" fill="#231f20"/><polygon points="258.5 84.71 258.5 163.46 274.99 172.99 276.99 96.72 258.5 84.71" fill="#fff"/><path d="M275,173.49a.57.57,0,0,1-.25-.06l-16.49-9.54a.52.52,0,0,1-.25-.43V84.71a.5.5,0,0,1,.27-.44.49.49,0,0,1,.51,0l18.49,12a.51.51,0,0,1,.22.44l-2,76.27a.5.5,0,0,1-.25.42A.54.54,0,0,1,275,173.49Zm-16-10.32,15.52,9,2-75.15L259,85.63Z" fill="#231f20"/><polygon points="253.15 125.77 274.45 117.6 255.49 105.12 234.66 113.75 253.15 125.77" fill="#8edfd8"/><path d="M253.15,126.27a.57.57,0,0,1-.28-.08l-18.49-12a.5.5,0,0,1,.09-.88l20.83-8.63a.49.49,0,0,1,.47,0l19,12.48a.51.51,0,0,1-.1.89l-21.31,8.16A.33.33,0,0,1,253.15,126.27Zm-17.42-12.42,17.48,11.36,20.15-7.73-17.92-11.8Z" fill="#231f20"/><polygon points="253.15 125.77 251.15 184.25 272.57 173.96 274.45 117.6 253.15 125.77" fill="#fff"/><path d="M251.15,184.76a.51.51,0,0,1-.5-.52l2-58.49a.48.48,0,0,1,.32-.45l21.3-8.17a.52.52,0,0,1,.47.06.49.49,0,0,1,.21.43L273.07,174a.47.47,0,0,1-.28.43l-21.43,10.3A.54.54,0,0,1,251.15,184.76Zm2.48-58.65-2,57.34,20.41-9.81,1.85-55.3Z" fill="#231f20"/><polygon points="234.66 113.75 234.66 174.72 251.15 184.25 253.15 125.77 234.66 113.75" fill="#fff"/><path d="M251.15,184.76a.52.52,0,0,1-.25-.07l-16.49-9.54a.48.48,0,0,1-.25-.43v-61a.51.51,0,0,1,.26-.44.52.52,0,0,1,.51,0l18.49,12a.5.5,0,0,1,.23.43l-2,58.49a.51.51,0,0,1-.26.42A.55.55,0,0,1,251.15,184.76Zm-16-10.33,15.51,9,2-57.38-17.48-11.36Z" fill="#231f20"/><polygon points="229.04 152.25 250.35 144.08 231.39 131.6 210.56 140.23 229.04 152.25" fill="#8edfd8"/><path d="M229,152.75a.53.53,0,0,1-.27-.08l-18.49-12a.5.5,0,0,1-.22-.46.48.48,0,0,1,.3-.42l20.84-8.63a.49.49,0,0,1,.47,0l19,12.48a.51.51,0,0,1,.23.47.52.52,0,0,1-.32.42l-21.31,8.16A.48.48,0,0,1,229,152.75Zm-17.42-12.42,17.48,11.36L249.26,144l-17.92-11.8Z" fill="#231f20"/><polygon points="229.04 152.25 227.04 196.36 248.47 186.07 250.35 144.08 229.04 152.25" fill="#fff"/><path d="M227,196.86a.53.53,0,0,1-.27-.08.48.48,0,0,1-.22-.44l2-44.12a.47.47,0,0,1,.32-.44l21.3-8.17a.52.52,0,0,1,.47.06.49.49,0,0,1,.21.43l-1.88,42a.51.51,0,0,1-.28.43l-21.43,10.29A.42.42,0,0,1,227,196.86Zm2.49-44.26-1.95,43,20.41-9.8,1.83-40.93Z" fill="#231f20"/><polygon points="210.56 140.23 210.56 186.82 227.04 196.36 229.04 152.25 210.56 140.23" fill="#fff"/><path d="M227,196.86a.57.57,0,0,1-.25-.06l-16.48-9.54a.5.5,0,0,1-.25-.43v-46.6a.51.51,0,0,1,.26-.44.52.52,0,0,1,.51,0l18.49,12a.47.47,0,0,1,.22.44l-2,44.12a.46.46,0,0,1-.26.41A.48.48,0,0,1,227,196.86Zm-16-10.32,15.52,9,1.95-43-17.47-11.36Z" fill="#231f20"/><polygon points="204.8 178.21 226.11 170.05 207.15 157.56 186.31 166.2 204.8 178.21" fill="#8edfd8"/><path d="M204.8,178.71a.53.53,0,0,1-.27-.08l-18.49-12a.5.5,0,0,1-.22-.47.48.48,0,0,1,.3-.41L207,157.1a.5.5,0,0,1,.46.05l19,12.48a.5.5,0,0,1-.09.88L205,178.68ZM187.38,166.3l17.48,11.35L225,169.93l-17.92-11.8Z" fill="#231f20"/><polygon points="204.8 178.21 202.8 207.81 224.23 197.52 226.11 170.05 204.8 178.21" fill="#fff"/><path d="M202.8,208.31a.5.5,0,0,1-.28-.08.52.52,0,0,1-.22-.45l2-29.6a.49.49,0,0,1,.32-.43l21.31-8.17a.51.51,0,0,1,.48.06.54.54,0,0,1,.2.44l-1.88,27.48a.48.48,0,0,1-.28.41L203,208.26A.42.42,0,0,1,202.8,208.31Zm2.48-29.75L203.36,207l20.39-9.79,1.81-26.41Z" fill="#231f20"/><polygon points="186.31 166.2 186.31 198.28 202.8 207.81 204.8 178.21 186.31 166.2" fill="#fff"/><path d="M202.8,208.31a.57.57,0,0,1-.25-.06l-16.49-9.54a.5.5,0,0,1-.25-.43V166.2a.5.5,0,0,1,.27-.44.49.49,0,0,1,.51,0l18.49,12a.51.51,0,0,1,.22.46l-2,29.6a.52.52,0,0,1-.26.41A.69.69,0,0,1,202.8,208.31Zm-16-10.32,15.55,9,1.92-28.51-17.47-11.35Z" fill="#231f20"/><path d="M310.45,72.32s-20.85,41.65-45.6,69.6c-13.32,15.06-50.39,51.19-50.39,51.19l16-12.58S267,153.61,282.31,133.7,316.66,80.2,317,78.89s-3.38-9.57-3.38-9.57Z" fill="#231f20"/><path d="M214.46,193.61a.52.52,0,0,1-.38-.17.5.5,0,0,1,0-.69c.37-.36,37.21-36.29,50.37-51.16C288.89,114,309.8,72.51,310,72.1a.36.36,0,0,1,.1-.14l3.21-3a.47.47,0,0,1,.44-.12.47.47,0,0,1,.35.28c.9,2,3.8,8.53,3.41,9.92-.35,1.21-19.31,34.86-34.81,55-15.22,19.74-51.59,46.66-52,46.93l-16,12.56A.5.5,0,0,1,214.46,193.61Zm96.4-121c-1.05,2.08-21.64,42.54-45.63,69.63-9.79,11.06-32.63,33.73-43.9,44.82l8.81-6.93c.38-.28,36.65-27.12,51.78-46.74,15.44-20,34.24-53.43,34.64-54.65.18-.68-1.41-4.86-3.07-8.59Z" fill="#231f20"/><polygon points="334.68 42.85 332.24 41.82 302.77 69.04 303.71 71.57 334.68 42.85" fill="#231f20"/><path d="M303.71,72.07h-.12a.51.51,0,0,1-.35-.32l-.94-2.53a.5.5,0,0,1,.13-.54L331.9,41.45a.51.51,0,0,1,.54-.09l2.44,1a.52.52,0,0,1,.29.37.5.5,0,0,1-.15.46l-31,28.72A.53.53,0,0,1,303.71,72.07Zm-.35-2.89.56,1.51L333.77,43l-1.43-.61Z" fill="#231f20"/><path d="M230.45,178.94s32.35-26.69,55.24-58.75a340.26,340.26,0,0,0,27.22-45l-9.2-3.57,31-28.72L333,80.77l-8.07-2.25s-21.19,36.87-37,55c-22.24,25.53-60.35,53-73.48,59.6Z" fill="#8edfd8"/><path d="M214.46,193.61a.51.51,0,0,1-.42-.22.5.5,0,0,1,.08-.65l16-14.18h0c.33-.26,32.56-27,55.15-58.65a347.08,347.08,0,0,0,26.94-44.49L303.53,72a.52.52,0,0,1-.31-.38.51.51,0,0,1,.15-.46l31-28.72a.51.51,0,0,1,.55-.08.48.48,0,0,1,.29.47l-1.69,37.92a.5.5,0,0,1-.63.46l-7.7-2.15c-2.18,3.75-22,37.71-36.84,54.74-21.93,25.17-60.14,53-73.64,59.72A.59.59,0,0,1,214.46,193.61Zm16.32-14.29L218.1,190.55c15.83-9.22,49.45-34.39,69.47-57.37,15.57-17.87,36.71-54.55,36.92-54.91a.49.49,0,0,1,.56-.24l7.47,2.09,1.61-36.07L304.64,71.39l8.45,3.28a.48.48,0,0,1,.28.28.5.5,0,0,1,0,.4,344.68,344.68,0,0,1-27.26,45.13C263.54,152.07,231.41,178.79,230.78,179.32Z" fill="#231f20"/><path d="M149.33,228.91a.47.47,0,0,1-.32-.12l-41.53-35.3a.49.49,0,0,1-.06-.7.51.51,0,0,1,.71-.06l41.28,35.09,45.11-20.46a.5.5,0,1,1,.41.91l-45.39,20.6A.52.52,0,0,1,149.33,228.91Z" fill="#d1d3d4"/><path d="M323.61,145.05a.49.49,0,0,1-.44-.27.51.51,0,0,1,.21-.68l16.94-8.63a.49.49,0,0,1,.67.22.49.49,0,0,1-.22.67L323.84,145A.46.46,0,0,1,323.61,145.05Z" fill="#d1d3d4"/><path d="M231.13,111a.52.52,0,0,1-.29-.09l-24-17.14a.52.52,0,0,1-.21-.47.5.5,0,0,1,.3-.4l7.33-3.1a.51.51,0,0,1,.49.06l23.58,17.36a.51.51,0,0,1,.11.7.5.5,0,0,1-.7.1L214.39,90.83l-6.24,2.64,23.27,16.62a.5.5,0,0,1-.29.91Z" fill="#d1d3d4"/><path d="M246.91,104.07a.52.52,0,0,1-.29-.09L227.25,90.14a.47.47,0,0,1-.21-.45.5.5,0,0,1,.28-.41L234.18,86a.51.51,0,0,1,.52,0l19.42,14.29a.5.5,0,0,1-.59.81L234.35,87l-5.84,2.83,18.7,13.36a.5.5,0,0,1-.3.9Z" fill="#d1d3d4"/><path d="M148,223.8h-.1a.49.49,0,0,1-.39-.59c.07-.38,1.91-9.3,6.48-13,2.33-1.86,4.88-2.24,7.13-2.57,2.95-.43,5.5-.8,7.09-4.2A49.22,49.22,0,0,0,173,187a.5.5,0,0,1,.53-.47.49.49,0,0,1,.47.52c0,.31-.44,7.53-4.83,16.87-1.83,3.88-4.75,4.31-7.85,4.76-2.23.33-4.54.67-6.65,2.36-4.3,3.43-6.11,12.29-6.13,12.38A.5.5,0,0,1,148,223.8Z" fill="#d1d3d4"/><path d="M58.61,151a.5.5,0,0,1-.19-1l20-7.89a.5.5,0,1,1,.37.93l-20,7.89A.39.39,0,0,1,58.61,151Z" fill="#d1d3d4"/><path d="M63.08,156.37a.5.5,0,0,1-.18-1L76.48,150a.51.51,0,0,1,.65.28.5.5,0,0,1-.28.65l-13.58,5.37A.63.63,0,0,1,63.08,156.37Z" fill="#d1d3d4"/></g></svg>