<?xml version="1.0" encoding="utf-8"?>
<!-- Generator: Adobe Illustrator 22.0.1, SVG Export Plug-In . SVG Version: 6.00 Build 0)  -->
<svg version="1.1" id="레이어_1" xmlns="http://www.w3.org/2000/svg" xmlns:xlink="http://www.w3.org/1999/xlink" x="0px"
	 y="0px" viewBox="0 0 200 200" style="enable-background:new 0 0 200 200;" xml:space="preserve">
<style type="text/css">
	.st0{fill:#231F20;stroke:#050505;stroke-width:3;stroke-miterlimit:10;}
	.st1{fill:#D1D3D4;}
	.st2{fill:#FFFFFF;}
	.st3{fill:#231F20;}
	.st4{fill:#45E1E0;}
	.st5{font-family:'BerlinSansFBDemi-Bold';}
	.st6{font-size:65.7681px;}
</style>
<path class="st0" d="M145.1,10.3l28.7,27v152.5H26.3V10.3H145.1 M145.1,9.2H26.3c-0.6,0-1,0.5-1,1v179.5c0,0.6,0.5,1,1,1h147.5
	c0.6,0,1-0.5,1-1V37.2c0-0.3-0.1-0.6-0.3-0.7l-28.7-27C145.6,9.3,145.4,9.2,145.1,9.2z"/>
<path class="st1" d="M153.4,67H46.7c-0.5,0-0.8-0.2-0.8-0.5c0-0.3,0.4-0.5,0.8-0.5h106.6c0.5,0,0.8,0.2,0.8,0.5
	C154.2,66.8,153.8,67,153.4,67z"/>
<path class="st1" d="M153.1,81.3H47c-0.6,0-1.1-0.2-1.1-0.5c0-0.3,0.5-0.5,1.1-0.5h106.2c0.6,0,1.1,0.2,1.1,0.5
	C154.2,81.1,153.7,81.3,153.1,81.3z"/>
<path class="st1" d="M153.3,95.5H46.8c-0.5,0-0.9-0.2-0.9-0.5c0-0.3,0.4-0.5,0.9-0.5h106.4c0.5,0,0.9,0.2,0.9,0.5
	C154.2,95.3,153.8,95.5,153.3,95.5z"/>
<path class="st1" d="M153.1,109.7H47c-0.6,0-1.1-0.2-1.1-0.5c0-0.3,0.5-0.5,1.1-0.5h106.2c0.6,0,1.1,0.2,1.1,0.5
	C154.2,109.5,153.7,109.7,153.1,109.7z"/>
<path class="st1" d="M153.4,124H46.7c-0.5,0-0.8-0.2-0.8-0.5c0-0.3,0.4-0.5,0.8-0.5h106.6c0.5,0,0.8,0.2,0.8,0.5
	C154.2,123.7,153.8,124,153.4,124z"/>
<path class="st1" d="M153,138.2H47.1c-0.7,0-1.2-0.2-1.2-0.5c0-0.3,0.6-0.5,1.2-0.5H153c0.7,0,1.2,0.2,1.2,0.5
	C154.2,138,153.7,138.2,153,138.2z"/>
<g>
	<polygon class="st2" points="173.7,37.2 173.7,189.7 26.3,189.7 26.3,10.3 145.1,10.3 	"/>
	<polyline class="st3" points="145.1,10.3 145.1,36.9 173.7,36.9 	"/>
</g>
<text transform="matrix(1 0 0 1 68.299 -95.8405)" style="font-family:'Kwixter-Sketch'; font-size:44.3427px;">FILE</text>
<text transform="matrix(1 0 0 1 35.1633 120.9761)" class="st4 st5 st6">FILE</text>
</svg>
